# xmcd CD database file
#
# Track frame offsets:
#	150
#	24571
#	51228
#	80478
#	110044
#	136814
#	162646
#	190048
#
# Disc length: 2885 seconds
#
# Revision: 0
# Processed by: cddbd v1.5PL3 Copyright (c) Steve Scherf et al.
# Submitted via: CDex 1.51
#
DISCID=690b4308
DTITLE=Satori - Rejuvenate
DYEAR=1900
DGENRE=New Age
TTITLE0=Awaken the Spirit
TTITLE1=Inner Eye
TTITLE2=Kangaroo Island
TTITLE3=Whisper
TTITLE4=Year of the Dragon
TTITLE5=Marrakech
TTITLE6=Rejuvenate
TTITLE7=Morocco Moon
EXTD=
EXTT0=
EXTT1=
EXTT2=
EXTT3=
EXTT4=
EXTT5=
EXTT6=
EXTT7=
PLAYORDER=
